<svg width="12" height="12" viewBox="0 0 12 12" fill="none" xmlns="http://www.w3.org/2000/svg">
<path d="M11 6.83334H6.83332V11C6.83332 11.221 6.74553 11.433 6.58925 11.5893C6.43296 11.7455 6.221 11.8333 5.99999 11.8333C5.77898 11.8333 5.56701 11.7455 5.41073 11.5893C5.25445 11.433 5.16666 11.221 5.16666 11V6.83334H0.99999C0.778976 6.83334 0.567015 6.74555 0.410734 6.58927C0.254454 6.43299 0.166656 6.22102 0.166656 6.00001C0.166656 5.779 0.254454 5.56704 0.410734 5.41075C0.567015 5.25447 0.778976 5.16668 0.99999 5.16668H5.16666V1.00001C5.16666 0.778996 5.25445 0.567035 5.41073 0.410754C5.56701 0.254474 5.77898 0.166677 5.99999 0.166677C6.221 0.166677 6.43296 0.254474 6.58925 0.410754C6.74553 0.567035 6.83332 0.778996 6.83332 1.00001V5.16668H11C11.221 5.16668 11.433 5.25447 11.5892 5.41075C11.7455 5.56704 11.8333 5.779 11.8333 6.00001C11.8333 6.22102 11.7455 6.43299 11.5892 6.58927C11.433 6.74555 11.221 6.83334 11 6.83334Z" fill="#2884EF"/>
</svg>
