<svg width="10" height="6" viewBox="0 0 10 6" fill="none" xmlns="http://www.w3.org/2000/svg">
<path d="M4.99996 5.46668C4.91222 5.46718 4.82525 5.45037 4.74402 5.41719C4.6628 5.38401 4.58892 5.33513 4.52663 5.27334L0.526628 1.27334C0.464469 1.21118 0.415161 1.13739 0.381521 1.05618C0.347881 0.974961 0.330566 0.887916 0.330566 0.800009C0.330566 0.622475 0.401092 0.452212 0.526628 0.326676C0.652163 0.20114 0.822426 0.130615 0.999961 0.130615C1.1775 0.130615 1.34776 0.20114 1.47329 0.326676L4.99996 3.85334L8.52663 0.326676C8.58879 0.264517 8.66258 0.21521 8.74379 0.181569C8.82501 0.147929 8.91205 0.130615 8.99996 0.130615C9.08787 0.130615 9.17491 0.147929 9.25613 0.181569C9.33734 0.21521 9.41113 0.264517 9.47329 0.326676C9.53545 0.388835 9.58476 0.462629 9.6184 0.543844C9.65204 0.625058 9.66935 0.712103 9.66935 0.800009C9.66935 0.887916 9.65204 0.974961 9.6184 1.05618C9.58476 1.13739 9.53545 1.21118 9.47329 1.27334L5.47329 5.27334C5.411 5.33513 5.33712 5.38401 5.2559 5.41719C5.17467 5.45037 5.0877 5.46718 4.99996 5.46668Z" fill="#A1A5B7"/>
</svg>
